<svg id="Layer_1" data-name="Layer 1" xmlns="http://www.w3.org/2000/svg" viewBox="0 0 866.62 221.52"><defs><style>.cls-1{fill:#076f9f;}.cls-2{fill:#424241;}</style></defs><title>Bestinvest logo</title><path class="cls-1" d="M137.71,430.83H146c3,0,6.14-3.56,6.14-6.33v-100c0-3-3.17-6.53-6.14-6.53h-8.31V305.34h55.22c30.88,0,49.68,10.09,49.68,35,0,17.81-10.69,26.52-27.91,30.09v.59c20.59,2.77,33.85,13.06,33.85,33.45,0,26.92-21.38,39.39-53.44,39.39h-57.4Zm52-65.91c18.41,0,27.51-6.73,27.51-23,0-16.82-9.1-22.57-27.31-22.57H172.69v45.53Zm4.8,65.12c21.18,0,30.09-8.91,30.09-26.52s-8.51-25.14-30.88-25.14H175.11V430Z" transform="translate(-137.71 -305.14)"/><path class="cls-1" d="M253.89,392.43c0-32.86,20.39-53.44,50.47-53.44,29.1,0,45.92,15.24,45.92,49.88,0,3-.2,5.74-.2,6.53H276.26c.79,24.15,11.28,36,31.87,36,14.65,0,21.38-5.15,26.72-11.68h12.27v14.65c-8.12,5.34-19.79,10.69-40.58,10.69C271.71,445.08,253.89,424.89,253.89,392.43Zm74.82-9.9c-.79-22-9.3-30.28-24.35-30.28-15.64,0-25.73,9.9-27.71,30.28Z" transform="translate(-137.71 -305.14)"/><path class="cls-1" d="M352.91,439.14V417.57h12.86c2.38,9.7,9.11,13.66,23,13.66,14.25,0,23-5.15,23-15.83,0-9.7-7.13-12.47-24.74-15.24-21.38-3.17-32.46-9.9-32.46-30.48,0-19.4,14.84-30.68,39.59-30.68,16.43,0,26.52,2.37,34,5.15v20.59H415.66c-2.18-7.72-7.92-11.48-22.37-11.48-12.67,0-20.19,5.15-20.19,13.66,0,9.11,5.54,12.27,23.55,15,23.75,3.56,34.84,9.9,34.84,30.48,0,19.79-13.85,32.66-42.56,32.66C370.33,445.08,360.44,442.11,352.91,439.14Z" transform="translate(-137.71 -305.14)"/><path class="cls-1" d="M447.18,419.35V353.64H433.92V340.18h13.26V312.27h21.38v27.91h23.55v13.46H468.56V417c0,11.68,4,14.25,14.45,14.25H493.5v11.48a52.52,52.52,0,0,1-17.22,2.57C457.87,445.28,447.18,438.75,447.18,419.35Z" transform="translate(-137.71 -305.14)"/><path class="cls-1" d="M499.24,431.23H507a5.92,5.92,0,0,0,5.34-5.34v-66.7c0-2.38-2.57-5.54-5.15-5.54h-8.71V340.18h31.27c2.77,0,4,2.38,4,9.1v76.6a5.75,5.75,0,0,0,5.34,5.34h7.72v12.67h-47.5Zm8.46-114A12,12,0,0,1,520,305.14a12.08,12.08,0,1,1,0,24.15A12,12,0,0,1,507.7,317.22Z" transform="translate(-137.71 -305.14)"/><path class="cls-1" d="M553,431.23h7.72a5.92,5.92,0,0,0,5.34-5.34v-66.7c0-2.38-2.77-5.54-5.34-5.54h-8.51V340.18h30.28c3,0,5.15,2.77,4.95,12.67v2.77c10.29-9.5,24.74-16.62,40.77-16.62,14.85,0,27.12,5.34,27.12,25.73v61.16a5.73,5.73,0,0,0,5.15,5.34H667v12.67H619.68V431.23h14.25V371.85c0-12.87-5.74-16-16.23-16-11.08,0-21.38,4.55-30.28,9.9v65.52h14.45v12.67H553Z" transform="translate(-137.71 -305.14)"/><path class="cls-1" d="M669.8,360c-1.58-3.76-4.16-6.33-7.32-6.33h-4V340.18h45.72v13.46H689.6l25.73,69.47h.4l22-58c2.37-6.53,2-11.48-5.35-11.48h-5.15V340.18h41.57v13.46h-3.56c-3.56,0-6.33,2.38-8.12,6.53l-34,83.73H703.45Z" transform="translate(-137.71 -305.14)"/><path class="cls-1" d="M761.13,392.43c0-32.86,20.39-53.44,50.47-53.44,29.1,0,45.92,15.24,45.92,49.88,0,3-.2,5.74-.2,6.53H783.5c.79,24.15,11.28,36,31.87,36,14.65,0,21.38-5.15,26.72-11.68h12.27v14.65c-8.12,5.34-19.79,10.69-40.58,10.69C778.95,445.08,761.13,424.89,761.13,392.43Zm74.82-9.9c-.79-22-9.3-30.28-24.35-30.28-15.64,0-25.73,9.9-27.71,30.28Z" transform="translate(-137.71 -305.14)"/><path class="cls-1" d="M861.88,439.14V417.57h12.86c2.38,9.7,9.11,13.66,23,13.66,14.25,0,23-5.15,23-15.83,0-9.7-7.12-12.47-24.74-15.24-21.38-3.17-32.46-9.9-32.46-30.48,0-19.4,5.61-30.68,39.59-30.68,16.43,0,26.52,2.37,34,5.15v20.59H924.63c-2.18-7.72-7.92-11.48-22.37-11.48-12.67,0-20.19,5.15-20.19,13.66,0,9.11,5.54,12.27,23.56,15,23.75,3.56,34.84,9.9,34.84,30.48,0,19.79-13.86,32.66-42.56,32.66C879.3,445.08,869.4,442.11,861.88,439.14Z" transform="translate(-137.71 -305.14)"/><path class="cls-1" d="M957.54,419.35V353.64H944.27V340.18h13.26V312.27h21.38v27.91h23.55v13.46H978.91V417c0,11.68,4,14.25,14.45,14.25h10.49v11.48a52.52,52.52,0,0,1-17.22,2.57C968.22,445.28,957.54,438.75,957.54,419.35Z" transform="translate(-137.71 -305.14)"/><path class="cls-2" d="M464.09,504.24a17.79,17.79,0,0,1-.93,5.75,11.14,11.14,0,0,1-2.88,4.58,9.2,9.2,0,0,1-2.85,1.85,10.35,10.35,0,0,1-6.34.34,9.41,9.41,0,0,1-2.32-1,9.15,9.15,0,0,1-1.92-1.51,7.09,7.09,0,0,1-1.34-1.9v13.84h-2.44V492.11h2.15l.29,4.29a7,7,0,0,1,1.36-2,8.91,8.91,0,0,1,2-1.56,9.47,9.47,0,0,1,2.32-1,9.3,9.3,0,0,1,2.46-.34,10.2,10.2,0,0,1,3.68.61,9.18,9.18,0,0,1,2.8,1.68,10.7,10.7,0,0,1,3,4.56A17.63,17.63,0,0,1,464.09,504.24Zm-2.49,0a15.62,15.62,0,0,0-.76-4.92,8.55,8.55,0,0,0-2.46-3.8,6.59,6.59,0,0,0-2.1-1.27,7.77,7.77,0,0,0-2.73-.44,7,7,0,0,0-2.83.54,7.44,7.44,0,0,0-2.15,1.41,9.36,9.36,0,0,0-2.39,3.78,14.63,14.63,0,0,0-.73,4.7,15.8,15.8,0,0,0,.68,4.85,8.39,8.39,0,0,0,2.39,3.68,7,7,0,0,0,2.17,1.39,7.71,7.71,0,0,0,2.95.51,7.05,7.05,0,0,0,3-.58,7.72,7.72,0,0,0,2.24-1.56,9.6,9.6,0,0,0,2.07-3.75A15.65,15.65,0,0,0,461.61,504.29Z" transform="translate(-137.71 -305.14)"/><path class="cls-2" d="M490.61,504.29a18.26,18.26,0,0,1-.78,5.56,10.68,10.68,0,0,1-2.68,4.34,10.55,10.55,0,0,1-3,2.1,10.41,10.41,0,0,1-8.14,0,10.52,10.52,0,0,1-3-2.1,10.66,10.66,0,0,1-2.68-4.34,20.2,20.2,0,0,1,0-11.12,10.67,10.67,0,0,1,2.68-4.34,10.55,10.55,0,0,1,3-2.1,10.41,10.41,0,0,1,8.14,0,10.58,10.58,0,0,1,3,2.1,10.69,10.69,0,0,1,2.68,4.34A18.27,18.27,0,0,1,490.61,504.29Zm-2.49,0a18.09,18.09,0,0,0-.54-4.48,8.44,8.44,0,0,0-2.19-3.8,7.6,7.6,0,0,0-2.29-1.56,7.62,7.62,0,0,0-8.43,1.56,8.41,8.41,0,0,0-2.19,3.8,19,19,0,0,0,0,9,8.38,8.38,0,0,0,2.19,3.8,7.62,7.62,0,0,0,10.72,0,8.41,8.41,0,0,0,2.19-3.8A18.09,18.09,0,0,0,488.12,504.29Z" transform="translate(-137.71 -305.14)"/><path class="cls-2" d="M521.37,516.48h-2.93l-7.17-20.86-7.12,20.86h-2.88l-6-24.37h2.34l5.26,21.45,7.22-21.11h2.58l7.17,20.91,5.31-21.25h2.29Z" transform="translate(-137.71 -305.14)"/><path class="cls-2" d="M553.15,503.27c0,.29,0,.56,0,.8s0,.51,0,.81H534.48a12.9,12.9,0,0,0,.71,4,10.61,10.61,0,0,0,1.83,3.29,7.21,7.21,0,0,0,2.46,1.9,8,8,0,0,0,3.44.68,7,7,0,0,0,5.31-2.15,6.89,6.89,0,0,0,1.15-1.51,7.15,7.15,0,0,0,.71-2h2.53a8.37,8.37,0,0,1-1,2.85,10.27,10.27,0,0,1-4.85,4.34,10.69,10.69,0,0,1-8.41-.22,10.67,10.67,0,0,1-3.22-2.49,12.31,12.31,0,0,1-2.32-4.12,15.86,15.86,0,0,1-.8-5.14,20.75,20.75,0,0,1,.49-4.53,11.12,11.12,0,0,1,1.9-4.14,9.79,9.79,0,0,1,8.29-4.24,9.64,9.64,0,0,1,4.41,1,10.07,10.07,0,0,1,3.27,2.61,11.63,11.63,0,0,1,2,3.78A14.08,14.08,0,0,1,553.15,503.27Zm-2.49-.63a11.39,11.39,0,0,0-.58-3.34,8.89,8.89,0,0,0-1.56-2.83,7.55,7.55,0,0,0-2.49-2,7.31,7.31,0,0,0-3.31-.73,8,8,0,0,0-3.41.71,7.53,7.53,0,0,0-2.56,1.92,9,9,0,0,0-1.63,2.83,9.9,9.9,0,0,0-.59,3.41Z" transform="translate(-137.71 -305.14)"/><path class="cls-2" d="M573,494.44a7.28,7.28,0,0,0-1.19-.19q-.61,0-1.19,0a7,7,0,0,0-3.78.93,6.93,6.93,0,0,0-2.36,2.44,10.8,10.8,0,0,0-1.24,3.41,20,20,0,0,0-.37,3.8v11.7h-2.44V492.11h2.14l.29,4.92a6.83,6.83,0,0,1,3-3.85,9,9,0,0,1,4.75-1.32l1.19,0A9.53,9.53,0,0,1,573,492Z" transform="translate(-137.71 -305.14)"/><path class="cls-2" d="M597.56,503.27c0,.29,0,.56,0,.8s0,.51,0,.81H578.89a12.9,12.9,0,0,0,.71,4,10.61,10.61,0,0,0,1.83,3.29,7.21,7.21,0,0,0,2.46,1.9,8,8,0,0,0,3.44.68,7,7,0,0,0,5.31-2.15,6.89,6.89,0,0,0,1.15-1.51,7.15,7.15,0,0,0,.71-2H597a8.37,8.37,0,0,1-1,2.85,10.27,10.27,0,0,1-4.85,4.34,10.69,10.69,0,0,1-8.41-.22,10.67,10.67,0,0,1-3.22-2.49,12.31,12.31,0,0,1-2.32-4.12,15.9,15.9,0,0,1-.8-5.14,20.84,20.84,0,0,1,.49-4.53,11.1,11.1,0,0,1,1.9-4.14,9.79,9.79,0,0,1,8.29-4.24,9.64,9.64,0,0,1,4.41,1,10.07,10.07,0,0,1,3.27,2.61,11.63,11.63,0,0,1,2,3.78A14.08,14.08,0,0,1,597.56,503.27Zm-2.49-.63a11.39,11.39,0,0,0-.58-3.34,8.89,8.89,0,0,0-1.56-2.83,7.55,7.55,0,0,0-2.49-2,7.31,7.31,0,0,0-3.31-.73,8,8,0,0,0-3.41.71,7.53,7.53,0,0,0-2.56,1.92,9,9,0,0,0-1.63,2.83,9.9,9.9,0,0,0-.59,3.41Z" transform="translate(-137.71 -305.14)"/><path class="cls-2" d="M621.5,516.48l-.29-4.29a7,7,0,0,1-1.37,2,8.94,8.94,0,0,1-1.95,1.56,9.44,9.44,0,0,1-2.32,1,9.31,9.31,0,0,1-2.46.34,10.2,10.2,0,0,1-3.68-.61,9.18,9.18,0,0,1-2.8-1.68,10.71,10.71,0,0,1-3-4.56,18.39,18.39,0,0,1,0-11.68,11.13,11.13,0,0,1,2.88-4.58,9.17,9.17,0,0,1,2.85-1.85,10.35,10.35,0,0,1,6.34-.34,9.47,9.47,0,0,1,2.32,1,9.2,9.2,0,0,1,1.93,1.51,7.16,7.16,0,0,1,1.34,1.9V481.28h2.44v35.2Zm-.24-12.19a15.84,15.84,0,0,0-.68-4.85,8.43,8.43,0,0,0-2.39-3.68,7,7,0,0,0-2.17-1.39,7.72,7.72,0,0,0-2.95-.51,7,7,0,0,0-3,.58,7.73,7.73,0,0,0-2.24,1.56,9.6,9.6,0,0,0-2.07,3.75,16.19,16.19,0,0,0,.1,9.46,8.53,8.53,0,0,0,2.46,3.8,6.53,6.53,0,0,0,2.1,1.27,7.76,7.76,0,0,0,2.73.44,7,7,0,0,0,2.83-.54,7.42,7.42,0,0,0,2.14-1.41,9.35,9.35,0,0,0,2.39-3.78A14.63,14.63,0,0,0,621.25,504.29Z" transform="translate(-137.71 -305.14)"/><path class="cls-2" d="M664.78,504.34a17.63,17.63,0,0,1-1,5.92,10.71,10.71,0,0,1-3,4.56,9.18,9.18,0,0,1-2.8,1.68,10.2,10.2,0,0,1-3.68.61,9.3,9.3,0,0,1-2.46-.34,9.41,9.41,0,0,1-2.32-1,8.91,8.91,0,0,1-2-1.56,7,7,0,0,1-1.37-2l-.29,4.29h-2.14v-35.2h2.44V496.2a7.13,7.13,0,0,1,1.34-1.9,9.15,9.15,0,0,1,1.92-1.51,9.47,9.47,0,0,1,2.32-1,10.35,10.35,0,0,1,6.34.34A9.2,9.2,0,0,1,661,494a11.18,11.18,0,0,1,2.88,4.58A17.83,17.83,0,0,1,664.78,504.34Zm-2.49,0a15.7,15.7,0,0,0-.66-4.53,9.62,9.62,0,0,0-2.07-3.75,7.79,7.79,0,0,0-2.24-1.56,7.05,7.05,0,0,0-3-.58,7.72,7.72,0,0,0-2.95.51,7,7,0,0,0-2.17,1.39,8.41,8.41,0,0,0-2.39,3.68,15.84,15.84,0,0,0-.68,4.85,14.63,14.63,0,0,0,.73,4.7,9.35,9.35,0,0,0,2.39,3.78,7.41,7.41,0,0,0,2.15,1.41,7,7,0,0,0,2.83.54,7.77,7.77,0,0,0,2.73-.44,6.58,6.58,0,0,0,2.1-1.27,8.57,8.57,0,0,0,2.46-3.8A15.67,15.67,0,0,0,662.3,504.29Z" transform="translate(-137.71 -305.14)"/><path class="cls-2" d="M678.14,521.69a8.6,8.6,0,0,1-2.44,3.66,6.21,6.21,0,0,1-4.14,1.32,13.82,13.82,0,0,1-1.53-.1,6.91,6.91,0,0,1-1.54-.34v-2l1.49.19a11.5,11.5,0,0,0,1.49.1,3.84,3.84,0,0,0,2.8-1,7,7,0,0,0,1.63-2.58l1.56-4-10-24.76h2.63l8.53,21.64,8.19-21.64h2.63Z" transform="translate(-137.71 -305.14)"/><polygon class="cls-2" points="584.56 210.49 584.56 177.17 572.77 177.17 572.77 170.96 602.84 170.96 602.84 177.17 591.05 177.17 591.05 210.49 584.56 210.49"/><rect class="cls-2" x="632.27" y="170.95" width="6.5" height="39.53"/><polygon class="cls-2" points="695.08 204.28 695.08 210.49 670.38 210.49 670.38 170.96 676.88 170.96 676.88 204.28 695.08 204.28"/><polygon class="cls-2" points="719.29 210.49 719.29 170.11 744.25 195.29 744.25 170.96 750.74 170.96 750.74 211.34 725.78 186.15 725.78 210.49 719.29 210.49"/><polygon class="cls-2" points="805.97 204.28 805.97 210.49 782.36 210.49 782.36 170.96 804.78 170.96 804.78 177.17 788.86 177.17 788.86 187.05 803.37 187.05 803.37 193.26 788.86 193.26 788.86 204.28 805.97 204.28"/><polygon class="cls-2" points="851.82 210.49 845.32 210.49 845.32 191.96 830.52 170.96 838.83 170.96 848.6 185.36 858.31 170.96 866.62 170.96 851.76 192.08 851.82 210.49"/></svg>