<svg width="142" height="437" xmlns="http://www.w3.org/2000/svg" xmlns:xlink="http://www.w3.org/1999/xlink">
    <defs>
        <path d="M16 0h125.28v436.383H0V16C0 7.163 7.163 0 16 0z" id="a"/>
    </defs>
    <g fill="none" fill-rule="evenodd">
        <mask id="b" fill="#fff">
            <use xlink:href="#a"/>
        </mask>
        <g mask="url(#b)" fill="#EEEDFC" fill-rule="nonzero" opacity=".4">
            <path d="M119.748 253.22-84.3 91.98c-6.288-4.931-14.494-7.429-22.876-6.963-8.381.466-16.278 3.858-22.012 9.457-2.802 2.74-4.974 5.952-6.39 9.444a25.378 25.378 0 0 0-1.845 10.892 25.293 25.293 0 0 0 2.99 10.62c1.776 3.314 4.276 6.264 7.353 8.675l180.545 142.67-164.35 161.83c-2.805 2.74-4.98 5.95-6.395 9.444a25.364 25.364 0 0 0-1.848 10.892 25.282 25.282 0 0 0 2.992 10.622c1.777 3.314 4.28 6.264 7.357 8.673 6.288 4.931 14.494 7.429 22.875 6.963 8.381-.465 16.277-3.858 22.01-9.457l185.748-182.901c2.804-2.738 4.978-5.949 6.393-9.441a25.362 25.362 0 0 0 1.847-10.89 25.278 25.278 0 0 0-2.99-10.619c-1.777-3.313-4.279-6.262-7.356-8.67v-.001z"/>
            <path d="M150.416 144.622-35.426 327.327c-5.735 5.593-13.626 8.981-21.997 9.445-8.372.465-16.565-2.031-22.84-6.958-3.068-2.409-5.56-5.357-7.33-8.668a25.242 25.242 0 0 1-2.967-10.612 25.37 25.37 0 0 1 1.862-10.88c1.42-3.489 3.595-6.696 6.398-9.431L82.137 128.56-97.93-13.982c-3.07-2.408-5.564-5.356-7.334-8.668a25.232 25.232 0 0 1-2.97-10.613 25.365 25.365 0 0 1 1.864-10.88c1.42-3.49 3.598-6.696 6.403-9.431 5.735-5.593 13.625-8.98 21.997-9.445 8.37-.465 16.563 2.031 22.838 6.958l203.513 161.1c3.07 2.408 5.563 5.355 7.333 8.666 1.77 3.31 2.779 6.919 2.969 10.61.19 3.691-.444 7.39-1.864 10.878-1.42 3.489-3.597 6.695-6.402 9.429z"/>
        </g>
    </g>
</svg>
