<svg xmlns="http://www.w3.org/2000/svg" width="125" height="37" viewBox="0 0 125 37">
    <defs>
        <linearGradient id="afsv3811va" x1="0%" x2="100.028%" y1="50.023%" y2="50.023%">
            <stop offset="9%" stop-color="#4A0081"/>
            <stop offset="25%" stop-color="#51008D"/>
            <stop offset="90%" stop-color="#6C00BE"/>
        </linearGradient>
        <linearGradient id="4t8dm2qymb" x1="0%" x2="100.028%" y1="50.073%" y2="50.073%">
            <stop offset="9%" stop-color="#4A0081"/>
            <stop offset="25%" stop-color="#51008D"/>
            <stop offset="90%" stop-color="#6C00BE"/>
        </linearGradient>
    </defs>
    <g fill="none" fill-rule="evenodd">
        <g fill-rule="nonzero">
            <g>
                <path fill="#4A0081" d="M34.944 11.589c3.16 0 5.467 1.105 5.467 4.032.07 1.443-.795 2.767-2.145 3.282 1.522.493 2.532 1.934 2.476 3.532 0 2.928-2.153 4.194-5.492 4.194h-6.105v-15.04h5.799zm-3.92 1.774v4.75h3.871c1.984 0 3.54-.436 3.54-2.42 0-1.983-1.612-2.354-3.564-2.354l-3.847.024zm0 6.508v4.952h4.137c2.162 0 3.597-.549 3.597-2.5 0-1.952-1.435-2.42-3.597-2.42l-4.137-.032zM51.661 21.468v.653H43.63c.087 1.824 1.636 3.232 3.46 3.145 1.157-.01 2.272-.44 3.137-1.21l.935 1.202c-1.131 1.05-2.635 1.604-4.177 1.54-1.41.053-2.775-.493-3.76-1.502-.985-1.01-1.497-2.388-1.41-3.796 0-3.13 2.138-5.306 5.057-5.306 2.774 0 4.742 2.153 4.79 5.274zm-8.008-.758h6.218c-.035-1.65-1.382-2.968-3.032-2.968-1.684-.02-3.087 1.286-3.186 2.968zM60.161 18.67c-.987-.601-2.118-.922-3.274-.928-1.395 0-2.298.589-2.298 1.516s.742 1.186 1.976 1.339l1.177.145c2.161.29 3.435 1.202 3.435 2.879 0 1.943-1.733 3.226-4.508 3.226-1.523.005-3.01-.469-4.25-1.355l.807-1.298c.994.76 2.226 1.142 3.476 1.08 1.669 0 2.701-.54 2.701-1.548 0-.75-.661-1.226-2.048-1.395l-1.178-.137c-2.282-.283-3.379-1.307-3.379-2.847 0-1.952 1.613-3.13 4.09-3.13 1.422-.03 2.823.354 4.031 1.106l-.758 1.346zM69.718 18.008h-4.266v4.96c0 1.532.806 2.193 1.911 2.193.746-.02 1.469-.258 2.08-.685l.807 1.314c-.88.656-1.95 1.01-3.048 1.008-2.21 0-3.525-1.21-3.525-3.798v-4.992H61.5v-1.613h2.21V13.17h1.758v3.226h4.266l-.016 1.613zM73.387 12.839c0 .328-.132.643-.368.872-.235.23-.553.354-.882.345-.327.01-.643-.116-.876-.346-.233-.23-.362-.544-.358-.871-.008-.332.118-.654.35-.89.233-.238.552-.37.884-.368.334-.003.654.13.89.366.234.237.365.558.36.892zm-.403 13.774h-1.742V16.41h1.742v10.202zM84.677 20.266v6.347H82.92v-5.774c0-1.88-1.024-2.984-2.79-2.984-.81-.033-1.597.276-2.168.85-.572.576-.877 1.364-.84 2.174v5.734h-1.718V16.41h1.734v1.33c.797-1.02 2.036-1.596 3.33-1.547 1.114-.074 2.207.327 3.009 1.102.801.776 1.238 1.855 1.201 2.97zM91.597 26.613L89.516 26.613 85.226 16.427 87.137 16.427 90.548 24.839 93.976 16.427 95.831 16.427zM105.645 21.468v.653h-8c.092 1.822 1.638 3.227 3.46 3.145 1.158-.008 2.273-.438 3.137-1.21l.935 1.202c-1.131 1.05-2.635 1.604-4.177 1.54-1.409.053-2.774-.493-3.758-1.502-.983-1.01-1.493-2.39-1.403-3.796 0-3.13 2.129-5.306 5.056-5.306 2.758 0 4.75 2.153 4.75 5.274zm-8.008-.758h6.218c-.03-1.642-1.366-2.96-3.008-2.968-1.687-.025-3.095 1.283-3.194 2.968h-.016zM114.161 18.67c-.986-.602-2.118-.923-3.274-.928-1.395 0-2.29.589-2.29 1.516s.734 1.186 1.968 1.339l1.177.145c2.161.29 3.435 1.202 3.435 2.879 0 1.943-1.733 3.226-4.508 3.226-1.529.026-3.028-.43-4.282-1.307l.807-1.306c.996.761 2.23 1.144 3.483 1.08 1.67 0 2.694-.54 2.694-1.548 0-.75-.661-1.226-2.04-1.395l-1.178-.137c-2.282-.282-3.387-1.307-3.387-2.847 0-1.952 1.613-3.129 4.089-3.129 1.422-.028 2.823.356 4.032 1.105l-.726 1.306zM123.726 18.008h-4.274v4.96c0 1.532.806 2.193 1.919 2.193.743-.02 1.464-.258 2.073-.685l.806 1.314c-.88.656-1.95 1.01-3.048 1.008-2.21 0-3.525-1.21-3.525-3.798v-4.992H115.5v-1.613h2.177V13.17h1.759v3.226h4.274l.016 1.613z"/>
                <path fill="url(#afsv3811va)" d="M3.209 4.288c.007-.353.19-.677.485-.859.294-.182.66-.196.967-.038l14.663 8.362c.317.182.512.525.512.897s-.195.715-.512.897l-4.54 2.585L18.041 18l2.816-1.605C22.18 15.638 23 14.205 23 12.65c0-1.554-.82-2.987-2.143-3.745L6.2.543C4.91-.2 3.33-.179 2.06.601.78 1.36-.008 2.768 0 4.288v3.12l3.209 1.81v-4.93z"/>
                <path fill="url(#4t8dm2qymb)" d="M20.857 21.05L2.735 11.172 0 9.677v17.594l10.966-5.977L7.7 19.516l-4.492 2.462V14.97l16.115 8.801c.318.169.516.495.514.85.001.356-.196.684-.514.857L4.661 33.476c-.308.151-.673.138-.967-.036-.295-.174-.478-.484-.485-.82V27.71L0 29.441v3.147c-.007 1.452.78 2.796 2.062 3.523.639.37 1.367.565 2.11.566.71.002 1.41-.177 2.029-.519l14.656-7.951C22.18 27.483 23 26.114 23 24.628c0-1.485-.82-2.854-2.143-3.578z"/>
            </g>
        </g>
    </g>
</svg>
